<svg width="15" height="15" viewBox="0 0 30 30" fill="none" xmlns="http://www.w3.org/2000/svg">
<path d="M26.8409 3.4754C26.1568 2.69063 25.3445 2.06809 24.4504 1.64335C23.5563 1.21861 22.598 1 21.6302 1C20.6625 1 19.7042 1.21861 18.8101 1.64335C17.916 2.06809 17.1037 2.69063 16.4195 3.4754L14.9996 5.10333L13.5798 3.4754C12.1978 1.89096 10.3234 1.00082 8.36905 1.00082C6.41466 1.00082 4.54031 1.89096 3.15835 3.4754C1.77638 5.05985 1 7.20882 1 9.44957C1 11.6903 1.77638 13.8393 3.15835 15.4237L4.57823 17.0517L14.9996 29L25.4211 17.0517L26.8409 15.4237C27.5254 14.6393 28.0684 13.708 28.4389 12.6829C28.8093 11.6579 29 10.5592 29 9.44957C29 8.33999 28.8093 7.24129 28.4389 6.21622C28.0684 5.19115 27.5254 4.25981 26.8409 3.4754Z" fill="#50597B" stroke="#50597B" stroke-width="2" stroke-linecap="round" stroke-linejoin="round"/>
</svg>
